# xmcd
#
# Track frame offsets: 
#        150
#        12541
#        23699
#        37290
#        52450
#        65450
#        80680
#        92710
#        103833
#        115579
#        129146
#        141085
#
# Disc length: 2042 seconds
#
# Revision: 0
# Processed by: cddbd v1.4PL0 Copyright (c) Steve Scherf et al.
# Submitted via: ExactAudioCopy v0.90b4
#
DISCID=a707f80c
DTITLE=Muddy Waters - They Call Me Muddy Waters
DYEAR=1900
DGENRE=Blues
TTITLE0=When The Eagle Flies
TTITLE1=Crawlin' Kingsnake
TTITLE2=County Jail
TTITLE3=It's All Over
TTITLE4=Bird Nest On The Ground
TTITLE5=They Call Me Muddy Waters
TTITLE6=Find Yourself Another Fool
TTITLE7=Kinfolk's Blues
TTITLE8=Making Friends
TTITLE9=Blind Man
TTITLE10=Two Steps Forward
TTITLE11=Howlin' Wolf
EXTD=
EXTT0=
EXTT1=
EXTT2=
EXTT3=
EXTT4=
EXTT5=
EXTT6=
EXTT7=
EXTT8=
EXTT9=
EXTT10=
EXTT11=
PLAYORDER=
